<?xml version="1.0" encoding="UTF-8"?>
<svg viewBox="0 0 1440 1440" xmlns="http://www.w3.org/2000/svg">
 <path d="m1194.2 363.93l130.8-89.268-186.53-54.611c-155.79-273.76-473.72-131-579.99 129.37-128.2 313.83-495.39 428.31-495.39 428.31 261.34 310.82 497.03 366.95 654.24 354.56 157.29-12.47 581.8-136.12 493.42-687.95-4.59-28.694-10.17-55.4-16.56-80.414z" fill="#bfbfbf"/>
 <path d="m1138.4 220.06c22.26 39.131 41.18 86.85 55.73 143.88l130.8-89.269-186.53-54.61z"/>
 <path d="m930.48 566.58s-436.34-89.971-486.37 152.82c-50.02 242.76 352.84 383.65 486.37-152.82z"/>
 <path d="m1014.4 213.31c2.91 26.034-10.5 48.971-30.025 51.242-19.598 2.195-37.874-17.167-40.776-43.16-2.98-26.033 10.436-48.97 30.033-51.241 19.604-2.124 37.788 17.131 40.768 43.159z"/>
</svg>
